<svg width="20" height="20" viewBox="0 0 20 20" fill="none" xmlns="http://www.w3.org/2000/svg">
<path d="M18 8.8V10C18 13.7712 18 15.6569 16.8284 16.8284C15.6569 18 13.7712 18 10 18C6.22876 18 4.34315 18 3.17157 16.8284C2 15.6569 2 13.7712 2 10C2 6.22876 2 4.34315 3.17157 3.17157C4.34315 2 6.22876 2 10 2H11.2M13.7216 3.16405L14.2407 2.645C15.1007 1.785 16.495 1.785 17.355 2.645C18.215 3.50499 18.215 4.89932 17.355 5.75931L16.836 6.27836M13.7216 3.16405C13.7216 3.16405 13.7865 4.26703 14.7597 5.24026C15.733 6.21348 16.836 6.27836 16.836 6.27836M13.7216 3.16405L8.94974 7.93594C8.62653 8.25915 8.46493 8.42076 8.32594 8.59895C8.162 8.80914 8.02144 9.03657 7.90675 9.27721C7.80953 9.48121 7.73726 9.69803 7.59271 10.1317L7.12993 11.52M16.836 6.27836L12.0641 11.0503C11.7408 11.3735 11.5792 11.5351 11.4011 11.6741C11.1909 11.838 10.9634 11.9786 10.7228 12.0932C10.5188 12.1905 10.302 12.2627 9.86834 12.4073L8.48 12.8701M8.48 12.8701L7.58167 13.1695C7.36828 13.2406 7.13301 13.1851 6.97395 13.026C6.8149 12.867 6.75936 12.6317 6.83049 12.4183L7.12993 11.52M8.48 12.8701L7.12993 11.52" stroke="#CD8AF6" stroke-width="1.5" stroke-linecap="round"/>
</svg>
