<svg width="20" height="20" viewBox="0 0 20 20" fill="none" xmlns="http://www.w3.org/2000/svg">
<g clip-path="url(#clip0_1_3367)">
<path d="M1.66406 9.99984C1.66406 6.07147 1.66406 4.10728 2.88445 2.88689C4.10484 1.6665 6.06902 1.6665 9.9974 1.6665C13.9258 1.6665 15.89 1.6665 17.1103 2.88689C18.3307 4.10728 18.3307 6.07147 18.3307 9.99984C18.3307 13.9282 18.3307 15.8924 17.1103 17.1128C15.89 18.3332 13.9258 18.3332 9.9974 18.3332C6.06902 18.3332 4.10484 18.3332 2.88445 17.1128C1.66406 15.8924 1.66406 13.9282 1.66406 9.99984Z" stroke="#F7B3B5" stroke-width="1.5"/>
<circle cx="13.3307" cy="6.66667" r="1.66667" stroke="#F7B3B5" stroke-width="1.5"/>
<path d="M1.66406 10.4169L3.12372 9.13976C3.88311 8.47529 5.02763 8.5134 5.74113 9.22691L9.3159 12.8017C9.8886 13.3744 10.7901 13.4525 11.4527 12.9868L11.7012 12.8121C12.6548 12.142 13.9448 12.2196 14.8111 12.9993L17.4974 15.4169" stroke="#F7B3B5" stroke-width="1.5" stroke-linecap="round"/>
</g>
<defs>
<clipPath id="clip0_1_3367">
<rect width="20" height="20" fill="white"/>
</clipPath>
</defs>
</svg>
