<svg width="20" height="20" viewBox="0 0 20 20" fill="none" xmlns="http://www.w3.org/2000/svg">
<path fill-rule="evenodd" clip-rule="evenodd" d="M18.9583 9.99999C18.9583 10.1824 18.8785 10.3558 18.74 10.4745L15.8233 12.9745C15.5613 13.1992 15.1667 13.1688 14.942 12.9067C14.7174 12.6447 14.7478 12.2501 15.0098 12.0255L16.6437 10.625L7.49992 10.625C7.15474 10.625 6.87492 10.3452 6.87492 9.99999C6.87492 9.65481 7.15474 9.37499 7.49992 9.37499L16.6437 9.37499L15.0098 7.97453C14.7478 7.74989 14.7174 7.35532 14.942 7.09325C15.1667 6.83117 15.5613 6.80082 15.8233 7.02546L18.74 9.52546C18.8785 9.64419 18.9583 9.81754 18.9583 9.99999ZM13.1233 5.82985C13.1252 6.17502 12.8469 6.45639 12.5018 6.45831C12.1566 6.46024 11.8752 6.18198 11.8733 5.8368C11.8682 4.92556 11.8446 4.27965 11.7545 3.78945C11.6678 3.3171 11.5284 3.04371 11.3256 2.84083C11.0949 2.6102 10.7711 2.45982 10.1596 2.37761C9.53018 2.29298 8.69592 2.29166 7.49974 2.29166H6.66641C5.47023 2.29166 4.63597 2.29298 4.00651 2.37761C3.39503 2.45982 3.07121 2.6102 2.84058 2.84083C2.60994 3.07147 2.45957 3.39528 2.37736 4.00676C2.29273 4.63622 2.29141 5.47048 2.29141 6.66666V13.3333C2.29141 14.5295 2.29273 15.3638 2.37736 15.9932C2.45957 16.6047 2.60995 16.9285 2.84058 17.1591C3.07121 17.3898 3.39503 17.5402 4.00651 17.6224C4.63596 17.707 5.47023 17.7083 6.6664 17.7083H7.49974C8.69592 17.7083 9.53018 17.707 10.1596 17.6224C10.7711 17.5402 11.0949 17.3898 11.3256 17.1591C11.5284 16.9563 11.6678 16.6829 11.7545 16.2105C11.8446 15.7203 11.8682 15.0744 11.8733 14.1632C11.8752 13.818 12.1566 13.5397 12.5018 13.5417C12.8469 13.5436 13.1252 13.825 13.1233 14.1701C13.1183 15.0714 13.0967 15.8226 12.984 16.4364C12.8679 17.068 12.6469 17.6056 12.2094 18.043C11.7079 18.5446 11.0763 18.7604 10.3262 18.8612C9.60372 18.9584 8.68512 18.9583 7.54546 18.9583H6.62068C5.48102 18.9583 4.56242 18.9584 3.83995 18.8612C3.08986 18.7604 2.45829 18.5446 1.9567 18.043C1.4551 17.5414 1.23936 16.9099 1.13851 16.1598C1.04137 15.4373 1.04139 14.5187 1.04141 13.379V6.62093C1.04139 5.48127 1.04137 4.56267 1.13851 3.8402C1.23936 3.09011 1.4551 2.45855 1.9567 1.95695C2.45829 1.45535 3.08986 1.23961 3.83995 1.13876C4.56242 1.04163 5.48102 1.04164 6.62068 1.04166H7.54547C8.68513 1.04164 9.60373 1.04163 10.3262 1.13876C11.0763 1.23961 11.7079 1.45535 12.2094 1.95695C12.6469 2.39439 12.8679 2.93195 12.984 3.56362C13.0967 4.17742 13.1183 4.92857 13.1233 5.82985Z" fill="#F7B3B5"/>
</svg>
